<?xml version="1.0" encoding="UTF-8" standalone="no"?> <svg width="512" height="512" viewBox="0 0 512 512" fill="none" xmlns="http://www.w3.org/2000/svg">
<path d="M288 88H224L232 16H279L288 88Z" fill="#FF9811"/>
<path d="M272 232.61C288.509 235.986 303.532 244.485 314.929 256.898C326.325 269.31 333.514 285.003 335.47 301.74C326.432 307.113 319.408 315.305 315.478 325.057C311.547 334.808 310.928 345.581 313.714 355.72C316.5 365.858 322.538 374.801 330.9 381.175C339.262 387.549 349.486 391.001 360 391V416C360 437.217 351.571 457.566 336.569 472.569C321.566 487.572 301.217 496 280 496H232C210.783 496 190.434 487.572 175.431 472.569C160.429 457.566 152 437.217 152 416V391C162.514 391.001 172.738 387.549 181.1 381.175C189.462 374.801 195.5 365.858 198.286 355.72C201.072 345.581 200.453 334.808 196.522 325.057C192.592 315.305 185.568 307.113 176.53 301.74C178.486 285.003 185.675 269.31 197.071 256.898C208.468 244.485 223.491 235.986 240 232.61" fill="#FF9811"/>
<path d="M179.36 288H16V264H191.26" fill="#A0815C"/>
<path d="M320.74 264H496V288H332.64" fill="#A0815C"/>
<path d="M272 88H240V319H272V88Z" fill="#A0815C"/>
<path d="M216 391H208C203.758 391.005 199.691 392.692 196.692 395.692C193.692 398.691 192.005 402.758 192 407V432H184C181.878 432 179.843 432.843 178.343 434.343C176.843 435.843 176 437.878 176 440C176 442.122 176.843 444.157 178.343 445.657C179.843 447.157 181.878 448 184 448H192C196.242 447.995 200.309 446.308 203.308 443.308C206.308 440.309 207.995 436.242 208 432V407H216C218.122 407 220.157 406.157 221.657 404.657C223.157 403.157 224 401.122 224 399C224 396.878 223.157 394.843 221.657 393.343C220.157 391.843 218.122 391 216 391Z" fill="black"/>
<path d="M296 391C293.878 391 291.843 391.843 290.343 393.343C288.843 394.843 288 396.878 288 399C288 401.122 288.843 403.157 290.343 404.657C291.843 406.157 293.878 407 296 407H304V432C304.005 436.242 305.692 440.309 308.692 443.308C311.691 446.308 315.758 447.995 320 448H328C330.122 448 332.157 447.157 333.657 445.657C335.157 444.157 336 442.122 336 440C336 437.878 335.157 435.843 333.657 434.343C332.157 432.843 330.122 432 328 432H320V407C319.995 402.758 318.308 398.691 315.308 395.692C312.309 392.692 308.242 391.005 304 391H296Z" fill="black"/>
<path d="M256 432C258.122 432 260.157 431.157 261.657 429.657C263.157 428.157 264 426.122 264 424V351C264 348.878 263.157 346.843 261.657 345.343C260.157 343.843 258.122 343 256 343C253.878 343 251.843 343.843 250.343 345.343C248.843 346.843 248 348.878 248 351V424C248 426.122 248.843 428.157 250.343 429.657C251.843 431.157 253.878 432 256 432Z" fill="black"/>
<path d="M272 448H240C237.878 448 235.843 448.843 234.343 450.343C232.843 451.843 232 453.878 232 456C232 458.122 232.843 460.157 234.343 461.657C235.843 463.157 237.878 464 240 464H272C274.122 464 276.157 463.157 277.657 461.657C279.157 460.157 280 458.122 280 456C280 453.878 279.157 451.843 277.657 450.343C276.157 448.843 274.122 448 272 448Z" fill="black"/>
<path d="M496 256H324.79C313.338 241.661 297.67 231.282 280 226.33V96H288C289.134 96.0002 290.256 95.7592 291.29 95.293C292.324 94.8268 293.247 94.146 293.998 93.2958C294.749 92.4457 295.31 91.4456 295.645 90.3618C295.98 89.2781 296.08 88.1356 295.94 87.01L295.06 80H296C298.122 80 300.157 79.1571 301.657 77.6569C303.157 76.1566 304 74.1217 304 72C304 69.8783 303.157 67.8434 301.657 66.3432C300.157 64.8429 298.122 64 296 64H293.06L290.06 40H296C298.122 40 300.157 39.1571 301.657 37.6569C303.157 36.1566 304 34.1217 304 32C304 29.8783 303.157 27.8434 301.657 26.3431C300.157 24.8429 298.122 24 296 24H288.06L286.94 15.01C286.699 13.0745 285.758 11.2938 284.296 10.0028C282.834 8.7119 280.951 7.99964 279 8H232C230.03 7.99859 228.13 8.72455 226.662 10.0386C225.195 11.3526 224.265 13.1621 224.05 15.12L223.06 24H216C213.878 24 211.843 24.8429 210.343 26.3431C208.843 27.8434 208 29.8783 208 32C208 34.1217 208.843 36.1566 210.343 37.6569C211.843 39.1571 213.878 40 216 40H221.28L218.62 64H216C213.878 64 211.843 64.8429 210.343 66.3432C208.843 67.8434 208 69.8783 208 72C208 74.1217 208.843 76.1566 210.343 77.6569C211.843 79.1571 213.878 80 216 80H216.84L216.05 87.12C215.925 88.2381 216.038 89.3699 216.38 90.4415C216.723 91.5131 217.288 92.5003 218.038 93.3385C218.789 94.1767 219.708 94.847 220.735 95.3056C221.762 95.7643 222.875 96.0009 224 96H232V226.33C214.33 231.282 198.662 241.661 187.21 256H16C13.8783 256 11.8434 256.843 10.3431 258.343C8.84285 259.843 8 261.878 8 264V288C8 290.122 8.84285 292.157 10.3431 293.657C11.8434 295.157 13.8783 296 16 296H40.8C42.6563 305.029 47.5688 313.142 54.7094 318.971C61.8501 324.8 70.7822 327.989 80 328H189.05C191.517 334.069 192.453 340.652 191.777 347.168C191.101 353.684 188.833 359.934 185.173 365.367C181.513 370.801 176.573 375.251 170.788 378.326C165.003 381.4 158.551 383.006 152 383C149.878 383 147.843 383.843 146.343 385.343C144.843 386.843 144 388.878 144 391V416C144.026 439.331 153.306 461.699 169.804 478.196C186.301 494.694 208.669 503.974 232 504H280C303.331 503.974 325.699 494.694 342.196 478.196C358.694 461.699 367.974 439.331 368 416V391C368 388.878 367.157 386.843 365.657 385.343C364.157 383.843 362.122 383 360 383C353.447 383.011 346.992 381.408 341.205 378.335C335.417 375.261 330.475 370.811 326.814 365.376C323.153 359.941 320.886 353.689 320.212 347.171C319.538 340.653 320.478 334.069 322.95 328H432C441.218 327.989 450.15 324.8 457.291 318.971C464.431 313.142 469.344 305.029 471.2 296H496C498.122 296 500.157 295.157 501.657 293.657C503.157 292.157 504 290.122 504 288V264C504 261.878 503.157 259.843 501.657 258.343C500.157 256.843 498.122 256 496 256V256ZM239.16 24H271.94L278.94 80H232.94L239.16 24ZM264 96V311H248V96H264ZM24 280V272H177.05C175.78 274.6 174.62 277.26 173.59 280H24ZM80 312C75.0393 311.994 70.202 310.453 66.152 307.588C62.102 304.723 59.0378 300.676 57.38 296H169.29C169.02 297.6 168.77 299.2 168.58 300.82C168.405 302.354 168.675 303.905 169.36 305.289C170.045 306.673 171.114 307.829 172.44 308.62C174.121 309.627 175.725 310.757 177.24 312H80ZM304 343C304.021 352.825 306.616 362.473 311.527 370.983C316.438 379.492 323.494 386.566 331.99 391.5C338.155 395.069 344.948 397.422 352 398.43V416C351.978 435.089 344.385 453.39 330.887 466.887C317.39 480.385 299.089 487.978 280 488H232C212.911 487.978 194.61 480.385 181.113 466.887C167.615 453.39 160.022 435.089 160 416V398.43C167.052 397.422 173.845 395.069 180.01 391.5C188.067 386.847 194.838 380.259 199.71 372.333C204.582 364.407 207.403 355.391 207.917 346.101C208.431 336.811 206.623 327.539 202.655 319.124C198.687 310.708 192.684 303.414 185.19 297.9C187.453 285.444 192.978 273.81 201.2 264.184C209.423 254.557 220.051 247.282 232 243.1V319C232 321.122 232.843 323.157 234.343 324.657C235.843 326.157 237.878 327 240 327H272C274.122 327 276.157 326.157 277.657 324.657C279.157 323.157 280 321.122 280 319V243.1C291.949 247.282 302.577 254.557 310.8 264.184C319.022 273.81 324.547 285.444 326.81 297.9C319.756 303.119 314.02 309.916 310.059 317.746C306.099 325.577 304.024 334.225 304 343V343ZM432 312H334.76C336.275 310.757 337.879 309.627 339.56 308.62C340.886 307.829 341.955 306.673 342.64 305.289C343.325 303.905 343.595 302.354 343.42 300.82C343.23 299.2 342.98 297.6 342.71 296H454.62C452.962 300.676 449.898 304.723 445.848 307.588C441.798 310.453 436.961 311.994 432 312V312ZM488 280H338.41C337.38 277.26 336.22 274.6 334.95 272H488V280Z" fill="black"/>
</svg>
